<svg id="Layer_1" data-name="Layer 1" xmlns="http://www.w3.org/2000/svg" viewBox="0 0 330 330"><path d="M315,200h-5V175a55,55,0,0,0-110,0v18A115,115,0,0,0,0,270.5a15,15,0,0,0,15,15H180V315a15,15,0,0,0,15,15H315a15,15,0,0,0,15-15V215A15,15,0,0,0,315,200Zm-85-25a25,25,0,0,1,50,0v25H230ZM31.33,255.5A85,85,0,0,1,180,215.73V255.5ZM300,300H210V230h90Z"/><path d="M115,125.5A62.75,62.75,0,1,0,52.25,62.75,62.82,62.82,0,0,0,115,125.5ZM115,30A32.75,32.75,0,1,1,82.25,62.75,32.79,32.79,0,0,1,115,30Z"/><circle cx="117.31" cy="62.75" r="36.43"/><rect x="203.45" y="222.51" width="100.09" height="80.34"/><path d="M119,234.38A48.88,48.88,0,1,1,70.14,185.5,48.88,48.88,0,0,1,119,234.38Z"/><path d="M203.85,227A48.88,48.88,0,1,1,155,178.09,48.89,48.89,0,0,1,203.85,227Z"/><path d="M161.09,208a48.88,48.88,0,1,1-48.88-48.88A48.88,48.88,0,0,1,161.09,208Z"/></svg>